<svg width="16" height="16" viewBox="0 0 16 16" fill="none" xmlns="http://www.w3.org/2000/svg">
<path fill-rule="evenodd" clip-rule="evenodd" d="M8 13.3333C10.9455 13.3333 13.3333 10.9455 13.3333 8.00001C13.3333 5.05449 10.9455 2.66668 8 2.66668C5.05448 2.66668 2.66666 5.05449 2.66666 8.00001C2.66666 10.9455 5.05448 13.3333 8 13.3333ZM8 14.6667C11.6819 14.6667 14.6667 11.6819 14.6667 8.00001C14.6667 4.31811 11.6819 1.33334 8 1.33334C4.3181 1.33334 1.33333 4.31811 1.33333 8.00001C1.33333 11.6819 4.3181 14.6667 8 14.6667Z" fill="#777E91"/>
<path fill-rule="evenodd" clip-rule="evenodd" d="M9.16446 12.1178C9.65693 11.1328 10 9.67885 10 8.00001C10 6.32117 9.65693 4.86719 9.16446 3.88225C8.63211 2.81756 8.14338 2.66668 8 2.66668C7.85663 2.66668 7.3679 2.81756 6.83555 3.88225C6.34308 4.86719 6.00001 6.32117 6.00001 8.00001C6.00001 9.67885 6.34308 11.1328 6.83555 12.1178C7.3679 13.1825 7.85663 13.3333 8 13.3333C8.14338 13.3333 8.63211 13.1825 9.16446 12.1178ZM8 14.6667C9.84095 14.6667 11.3333 11.6819 11.3333 8.00001C11.3333 4.31811 9.84095 1.33334 8 1.33334C6.15906 1.33334 4.66667 4.31811 4.66667 8.00001C4.66667 11.6819 6.15906 14.6667 8 14.6667Z" fill="#777E91"/>
<path fill-rule="evenodd" clip-rule="evenodd" d="M14.6337 8.66668C14.6555 8.44741 14.6667 8.22501 14.6667 8.00001C14.6667 7.77501 14.6555 7.55261 14.6337 7.33334H1.36625C1.34447 7.55261 1.33333 7.77501 1.33333 8.00001C1.33333 8.22501 1.34447 8.44741 1.36625 8.66668H14.6337Z" fill="#777E91"/>
</svg>
