<svg width="166" height="25" viewBox="0 0 166 25" fill="none" xmlns="http://www.w3.org/2000/svg">
<path d="M27.1363 21.4021V3.32178C27.1363 2.38119 27.3447 1.67574 27.7875 1.20545C28.2043 0.735149 28.7773 0.5 29.4546 0.5C30.1578 0.5 30.7309 0.735149 31.1476 1.20545C31.5905 1.67574 31.7988 2.38119 31.7988 3.32178V21.4021C31.7988 22.3427 31.5905 23.0743 31.1476 23.5446C30.7048 24.0149 30.1578 24.25 29.4546 24.25C28.7773 24.25 28.2303 24.0149 27.8136 23.5446C27.3708 23.0481 27.1363 22.3427 27.1363 21.4021Z" fill="black" fill-opacity="0.2"/>
<path d="M153.18 24.2239C146.668 24.2239 141.355 18.8938 141.355 12.3619C141.355 5.83003 146.668 0.5 153.18 0.5C159.692 0.5 165.006 5.83003 165.006 12.3619C165.006 18.92 159.718 24.2239 153.18 24.2239ZM153.18 5.30748C149.299 5.30748 146.148 8.46892 146.148 12.3619C146.148 16.2549 149.299 19.4164 153.18 19.4164C157.061 19.4164 160.213 16.2549 160.213 12.3619C160.213 8.49505 157.061 5.30748 153.18 5.30748Z" fill="black" fill-opacity="0.2"/>
<path d="M100.121 24.2239C93.6096 24.2239 88.2959 18.8938 88.2959 12.3619C88.2959 5.83003 93.6096 0.5 100.121 0.5C106.633 0.5 111.947 5.83003 111.947 12.3619C111.947 18.92 106.633 24.2239 100.121 24.2239ZM100.121 5.30748C96.2404 5.30748 93.0886 8.46892 93.0886 12.3619C93.0886 16.2549 96.2404 19.4164 100.121 19.4164C104.003 19.4164 107.154 16.2549 107.154 12.3619C107.154 8.49505 104.003 5.30748 100.121 5.30748Z" fill="black" fill-opacity="0.2"/>
<path d="M137.578 12.3619C137.578 9.74918 136.718 7.31931 135.286 5.35974C133.202 2.51183 129.868 0.630638 126.091 0.5C125.961 0.5 125.856 0.5 125.726 0.5H119.787C118.771 0.5 118.042 0.735149 117.599 1.20545C117.156 1.67574 116.922 2.40732 116.922 3.45242V21.2976C116.922 22.3427 117.156 23.0743 117.599 23.5446C118.042 24.0149 118.797 24.25 119.787 24.25H125.726C125.856 24.25 125.961 24.25 126.091 24.25C129.868 24.1455 133.176 22.2643 135.286 19.3903C136.718 17.4046 137.578 14.9747 137.578 12.3619ZM126.586 19.3641C126.013 19.3903 125.388 19.4164 124.736 19.4164H121.637V5.30748H124.736C125.388 5.30748 126.013 5.30748 126.586 5.35974C128.643 5.59488 130.415 6.7445 131.535 8.36441C132.316 9.4879 132.785 10.8727 132.785 12.3619C132.785 13.8512 132.316 15.2098 131.535 16.3333C130.415 18.0055 128.643 19.129 126.586 19.3641Z" fill="black" fill-opacity="0.2"/>
<path d="M81.6016 0.604448C80.742 0.343172 79.8043 0.682831 79.3094 1.44053L72.1724 12.3357L65.0354 1.44053C64.5405 0.682831 63.6028 0.343172 62.7432 0.604448C61.8837 0.865724 61.2846 1.70181 61.2846 2.61627V21.9768C61.2846 23.1264 62.1962 24.0932 63.3423 24.0932C64.4624 24.0932 65.4001 23.1526 65.4001 21.9768V9.51396L70.4533 17.2477C70.4533 17.2477 70.4533 17.2477 70.4533 17.2739C70.4533 17.2739 70.4533 17.3 70.4793 17.3C70.5054 17.3522 70.5314 17.4045 70.5835 17.4306C70.6096 17.4568 70.6096 17.4568 70.6356 17.4829C70.6617 17.509 70.6877 17.5613 70.7138 17.5874C70.7398 17.6135 70.7659 17.6396 70.7919 17.6658C70.8179 17.6919 70.844 17.6919 70.844 17.718C70.8961 17.7442 70.9221 17.7703 70.9742 17.8225L71.0003 17.8487C71.0524 17.8748 71.1045 17.9009 71.1305 17.9271C71.1566 17.9271 71.1566 17.9532 71.1566 17.9532C71.1826 17.9793 71.2347 17.9793 71.2608 18.0054C71.4691 18.1099 71.6775 18.1622 71.9119 18.1883C71.964 18.1883 71.9901 18.1883 72.0422 18.1883C72.0682 18.1883 72.0943 18.1883 72.1203 18.1883C72.1464 18.1883 72.1724 18.1883 72.1985 18.1883C72.2506 18.1883 72.2766 18.1883 72.3287 18.1883C72.5371 18.1622 72.7715 18.1099 72.9799 18.0054C73.0059 17.9793 73.058 17.9793 73.0841 17.9532L73.1101 17.9271C73.1622 17.9009 73.2143 17.8748 73.2404 17.8487C73.2664 17.8487 73.2664 17.8225 73.2664 17.8225C73.3185 17.7964 73.3446 17.7703 73.3966 17.718C73.4227 17.6919 73.4487 17.6919 73.4487 17.6658C73.4748 17.6396 73.5008 17.6135 73.5269 17.5874C73.5529 17.5613 73.579 17.5351 73.605 17.4829C73.6311 17.4568 73.6311 17.4568 73.6571 17.4306C73.6832 17.3784 73.7353 17.3522 73.7613 17.3L73.7874 17.2739C73.7874 17.2739 73.7874 17.2739 73.7874 17.2477L78.8406 9.51396V21.9768C78.8406 23.1264 79.7522 24.0932 80.8983 24.0932C82.0184 24.0932 82.9561 23.1526 82.9561 21.9768V2.61627C83.0603 1.70181 82.4612 0.865724 81.6016 0.604448Z" fill="black" fill-opacity="0.2"/>
<path d="M54.3038 23.5184H38.9619C38.1544 23.5184 37.2688 23.022 36.9302 22.2382C36.5915 21.4543 36.5394 20.3831 37.2427 19.5209L49.7716 4.91556H39.4047C38.2846 4.91556 37.3469 3.92272 37.3469 2.72085C37.3469 1.51898 38.2586 0.761276 39.4047 0.761276H53.3661C54.1736 0.761276 55.0071 0.891914 55.7365 1.70187C56.4137 2.43344 56.3616 4.02723 55.6323 4.96782L43.5202 19.129H54.3038C55.4499 19.129 56.2574 20.1218 56.2574 21.3237C56.2574 22.5256 55.4499 23.5184 54.3038 23.5184Z" fill="black" fill-opacity="0.2"/>
<path d="M11.8724 24.2239C8.46021 24.2239 5.3866 22.8652 3.17256 20.4092C1.24504 18.2668 0.125 15.4189 0.125 12.5971C0.125 3.79208 7.41831 0.5 12.0287 0.5C16.561 0.5 19.869 2.72085 20.0253 2.82536C21.0412 3.5308 21.3277 4.91557 20.6244 5.96067C19.9472 7.00577 18.5667 7.26705 17.5508 6.58773C17.4987 6.5616 15.1284 5.02008 12.0287 5.02008C9.13745 5.02008 5.15217 6.92739 5.15217 12.5971C5.15217 15.8108 7.54855 19.6254 11.9245 19.6254C14.399 19.6254 16.1182 18.9722 17.134 18.319V14.9747H13.7479C12.5236 14.9747 11.5338 13.9557 11.5338 12.7277C11.5338 11.4736 12.5236 10.4807 13.7479 10.4807H19.4002C20.6244 10.4807 21.6142 11.4997 21.6142 12.7277V19.4425C21.6142 20.0434 21.3798 20.6444 20.937 21.0624C19.4523 22.5256 16.1703 24.2239 11.8724 24.2239Z" fill="black" fill-opacity="0.2"/>
</svg>
