<svg width="34" height="34" viewBox="0 0 34 34" fill="none" xmlns="http://www.w3.org/2000/svg">
<path d="M17 21.25C19.3472 21.25 21.25 19.3472 21.25 17C21.25 14.6528 19.3472 12.75 17 12.75C14.6528 12.75 12.75 14.6528 12.75 17C12.75 19.3472 14.6528 21.25 17 21.25Z" fill="#3494EB"/>
<path d="M18.4167 5.76442V2.83333H15.5833V5.76442C13.0903 6.08225 10.7733 7.21896 8.99612 8.99611C7.21897 10.7733 6.08226 13.0902 5.76443 15.5833H2.83334V18.4167H5.76443C6.08203 20.9099 7.21866 23.227 8.99586 25.0042C10.7731 26.7814 13.0902 27.918 15.5833 28.2356V31.1667H18.4167V28.2356C20.9099 27.918 23.227 26.7814 25.0042 25.0042C26.7814 23.227 27.918 20.9099 28.2356 18.4167H31.1667V15.5833H28.2356C27.9178 13.0902 26.7811 10.7733 25.0039 8.99611C23.2267 7.21896 20.9098 6.08225 18.4167 5.76442V5.76442ZM17 25.5C12.3123 25.5 8.50001 21.6878 8.50001 17C8.50001 12.3123 12.3123 8.5 17 8.5C21.6878 8.5 25.5 12.3123 25.5 17C25.5 21.6878 21.6878 25.5 17 25.5Z" fill="#3494EB"/>
</svg>
