<svg width="36" height="36" viewBox="0 0 36 36" fill="none" xmlns="http://www.w3.org/2000/svg">
<circle cx="18" cy="18" r="18" fill="#3494EB"/>
<path d="M24.75 24.75L21.3855 21.3795M23.25 16.875C23.25 18.5658 22.5784 20.1873 21.3828 21.3828C20.1873 22.5784 18.5658 23.25 16.875 23.25C15.1842 23.25 13.5627 22.5784 12.3672 21.3828C11.1716 20.1873 10.5 18.5658 10.5 16.875C10.5 15.1842 11.1716 13.5627 12.3672 12.3672C13.5627 11.1716 15.1842 10.5 16.875 10.5C18.5658 10.5 20.1873 11.1716 21.3828 12.3672C22.5784 13.5627 23.25 15.1842 23.25 16.875V16.875Z" stroke="white" stroke-width="1.5" stroke-linecap="round"/>
</svg>
