<svg width="181" height="34" fill="none" xmlns="http://www.w3.org/2000/svg"><path d="M161.453 26.915h6.504c.252.82 1.11 1.64 2.718 1.64 2.177 0 2.927-1.352 2.927-3.352V23.78h-.144c-1.074 1.251-2.502 2.172-4.607 2.172-4.146 0-7.751-3.064-7.751-9.056 0-5.487 2.963-9.767 7.434-9.767 2.574 0 4.145 1.036 5.184 2.676h.108v-2.1h6.431V24.31c0 3.064-1.074 5.452-2.682 6.884-1.68 1.496-4.074 2.1-6.792 2.1-5.112 0-8.681-2.108-9.33-6.38Zm12.438-10.343c0-2.388-1.14-4.316-3.108-4.316-1.896 0-3.107 1.712-3.107 4.316 0 2.568 1.218 4.416 3.107 4.416 1.961.007 3.108-1.884 3.108-4.416Zm-19.972-5.596h.108c1.391-2.676 3.216-3.668 5.537-3.668.534 0 .894.072 1.111.18v5.883h-.145c-3.965-.712-6.287 1.18-6.287 5.488v8.02h-6.756V7.703h6.432v3.273ZM.25 0h13.223c2.502 0 4.427.604 5.79 1.712 1.536 1.244 2.358 3.1 2.358 5.308 0 2.568-1.038 4.172-3.18 5.172v.107c2.79.928 4.398 3.424 4.398 6.452 0 2.884-1.11 5.136-2.927 6.488-1.536 1.108-3.533 1.64-6.18 1.64H.25V0Zm12.582 20.923c1.607 0 2.783-.963 2.783-2.747 0-1.856-1.284-2.748-2.82-2.748h-5.22v5.488h5.257v.007Zm-.685-10.407c1.427 0 2.466-.784 2.466-2.352 0-1.532-1.075-2.28-2.502-2.28H7.575v4.632h4.572ZM24.05 0h6.93v26.879h-6.93V0Zm8.256 17.32c0-6.056 3.93-10.156 10.008-10.156 6.078 0 9.935 4.1 9.935 10.156 0 6.1-3.857 10.156-9.935 10.156-6.078.007-10.008-4.057-10.008-10.156Zm13.08 0c0-3.352-1.075-5.452-3.144-5.452-2.07 0-3.072 2.1-3.072 5.452 0 3.388 1.002 5.488 3.072 5.488 2.069.007 3.143-2.1 3.143-5.488Zm7.65 0c0-6.056 3.929-10.156 10.007-10.156 6.078 0 9.935 4.1 9.935 10.156 0 6.1-3.857 10.156-9.935 10.156-6.078.007-10.008-4.057-10.008-10.156Zm13.078 0c0-3.352-1.074-5.452-3.143-5.452-2.07 0-3.072 2.1-3.072 5.452 0 3.388 1.002 5.488 3.072 5.488 2.069.007 3.143-2.1 3.143-5.488Zm8.184-9.617h6.431v2.885h.108c1.284-2.245 3.036-3.46 5.79-3.46 2.43 0 4.254 1.208 5.184 3.316h.108c1.572-2.532 3.612-3.316 5.97-3.316 4.47 0 6.395 3.28 6.395 7.696v12.048h-6.756V16.04c0-1.964-.605-3.244-2.321-3.244-1.68 0-2.538 1.568-2.538 3.64v10.443h-6.763v-10.84c0-1.963-.606-3.243-2.322-3.243-1.68 0-2.538 1.568-2.538 3.64v10.443h-6.748V7.703Zm38.235 16.68h-.072v2.496h-6.432V0h6.756v9.696h.108c1.284-1.676 3-2.568 5.465-2.568 4.824 0 7.614 4.351 7.614 10.12 0 6.524-3.035 10.264-8.039 10.264-2.076.007-4.218-.993-5.4-3.129Zm6.575-7.2c0-3.1-1.139-5.1-3.179-5.1-2.07 0-3.396 2-3.396 5.1 0 3.064 1.319 5.1 3.396 5.1 2.069-.007 3.179-2 3.179-5.1Zm7.722.072c0-5.991 3.966-10.156 9.72-10.156 2.855 0 5.075.892 6.755 2.496 2.214 2.136 3.216 5.488 3.144 9.444H133.55c.289 2.388 1.428 3.603 3.468 3.603 1.183 0 2.214-.532 2.646-1.82h6.504c-1.139 4.381-4.535 6.596-9.359 6.596-5.977-.007-9.979-4.035-9.979-10.163Zm6.72-2h6.143c-.108-2.315-1.391-3.531-2.999-3.531-1.86 0-2.899 1.323-3.144 3.532Z" fill="#000" fill-opacity=".2"/></svg>