<svg width="115" height="29" fill="none" xmlns="http://www.w3.org/2000/svg"><path fill-rule="evenodd" clip-rule="evenodd" d="M70.053 8.138c-1.831 0-3.281.38-4.731 1.217 0-4.183 0-8.062.152-9.355l-8.928 1.597v.76l.916.153c1.22.228 1.602.913 1.831 2.51.23 3.194.153 20.003 0 22.817 2.366.533 4.884.913 7.402.913 7.021 0 11.218-4.335 11.218-11.18.076-5.477-3.358-9.432-7.86-9.432Zm-3.052 19.09c-.535 0-1.221 0-1.603-.151-.152-1.826-.229-9.584-.152-16.429.763-.228 1.297-.38 1.984-.38 2.9 0 4.502 3.422 4.502 7.606 0 5.324-1.984 9.355-4.731 9.355ZM23.275.532H0V1.75l1.297.152c1.755.229 2.366 1.293 2.671 3.803.382 4.716.23 13.31 0 17.418-.229 2.51-.916 3.65-2.67 3.802L0 27.153v1.065h14.957v-1.065l-1.603-.229c-1.755-.152-2.365-1.293-2.67-3.802-.153-1.75-.23-4.488-.23-7.91l3.206.152c1.984 0 2.9 1.597 3.28 3.802h1.222v-9.43H16.94c-.382 2.205-1.297 3.802-3.281 3.802l-3.206.152c0-4.487.153-8.67.23-11.18h4.654c3.587 0 5.418 2.205 6.716 6.16l1.297-.38-.076-7.758Z" fill="#000" fill-opacity=".2"/><path fill-rule="evenodd" clip-rule="evenodd" d="M30.753 7.91c6.64 0 9.92 4.488 9.92 10.42 0 5.628-3.662 10.42-10.301 10.42-6.64 0-9.92-4.487-9.92-10.42 0-5.704 3.738-10.42 10.301-10.42Zm-.381 1.293c-2.9 0-3.663 3.955-3.663 9.051 0 5.02 1.297 9.05 3.968 9.05 3.052 0 3.815-3.954 3.815-9.05 0-4.944-1.297-9.05-4.12-9.05Zm49.296 9.203c0-5.4 3.434-10.572 10.15-10.572 5.57 0 8.165 4.107 8.165 9.507H85.697c-.153 4.868 2.213 8.443 7.02 8.443 2.137 0 3.205-.533 4.503-1.445l.534.684c-1.297 1.826-4.197 3.651-7.937 3.651-5.875.076-10.149-4.183-10.149-10.268Zm6.105-2.434 6.181-.152c0-2.662-.381-6.617-2.67-6.617-2.214 0-3.358 3.727-3.51 6.77Zm28.006-6.997c-1.603-.685-3.663-1.065-6.105-1.065-4.884 0-7.936 2.89-7.936 6.313 0 3.423 2.213 4.868 5.418 5.932 3.281 1.217 4.197 2.13 4.197 3.651 0 1.598-1.221 3.043-3.281 3.043-2.519 0-4.35-1.445-5.8-5.4l-.916.228.153 5.78c1.602.685 4.502 1.217 7.021 1.217 5.189 0 8.47-2.662 8.47-6.693 0-2.738-1.45-4.335-4.884-5.628-3.663-1.446-5.036-2.358-5.036-4.108 0-1.749 1.221-2.89 2.747-2.89 2.365 0 3.968 1.445 5.189 5.02l.916-.228-.153-5.172Zm-55.936-.532c-2.213-1.293-6.18-.685-8.318 4.107l.153-4.64-8.852 1.75v.76l.916.152c1.22.152 1.755.76 1.831 2.51.23 3.195.153 8.67 0 11.485-.152 1.597-.687 2.358-1.831 2.51l-.916.152v1.065h12.286v-1.065l-1.602-.152c-1.298-.152-1.755-.913-1.832-2.51-.229-2.51-.229-7.53-.152-10.648.686-.913 3.586-1.75 6.18 0l2.137-5.476Z" fill="#000" fill-opacity=".2"/></svg>