<svg width="166" height="25" fill="none" xmlns="http://www.w3.org/2000/svg"><path d="M27.136 21.402V3.322c0-.94.209-1.646.652-2.117.416-.47.99-.705 1.667-.705.703 0 1.276.235 1.693.705.442.47.65 1.176.65 2.117v18.08c0 .94-.207 1.672-.65 2.143-.443.47-.99.705-1.693.705-.678 0-1.225-.235-1.641-.705-.443-.497-.678-1.202-.678-2.143Zm126.044 2.822c-6.512 0-11.825-5.33-11.825-11.862S146.668.5 153.18.5s11.826 5.33 11.826 11.862c0 6.558-5.288 11.862-11.826 11.862Zm0-18.917c-3.881 0-7.032 3.162-7.032 7.055s3.151 7.054 7.032 7.054c3.881 0 7.033-3.161 7.033-7.054 0-3.867-3.152-7.055-7.033-7.055Zm-53.059 18.917c-6.511 0-11.825-5.33-11.825-11.862S93.61.5 100.12.5c6.512 0 11.826 5.33 11.826 11.862 0 6.558-5.314 11.862-11.826 11.862Zm0-18.917c-3.88 0-7.032 3.162-7.032 7.055s3.151 7.054 7.032 7.054c3.882 0 7.033-3.161 7.033-7.054 0-3.867-3.151-7.055-7.033-7.055Zm37.457 7.055A11.886 11.886 0 0 0 126.091.5h-6.304c-1.016 0-1.745.235-2.188.705-.443.47-.677 1.202-.677 2.247v17.846c0 1.045.234 1.776.677 2.247.443.47 1.198.705 2.188.705h6.304c3.777-.105 7.085-1.986 9.195-4.86a11.995 11.995 0 0 0 2.292-7.028Zm-10.992 7.002c-.573.026-1.198.052-1.85.052h-3.099V5.307h3.099c.652 0 1.277 0 1.85.053 2.057.235 3.829 1.385 4.949 3.004a7 7 0 0 1 1.25 3.998c0 1.49-.469 2.848-1.25 3.971a6.868 6.868 0 0 1-4.949 3.031ZM81.602.604a2.037 2.037 0 0 0-2.293.837l-7.137 10.895L65.035 1.44a2.037 2.037 0 0 0-2.292-.837c-.86.262-1.458 1.098-1.458 2.012v19.36c0 1.15.911 2.117 2.057 2.117 1.12 0 2.058-.94 2.058-2.116V9.514l5.053 7.734v.026s0 .026.026.026c.026.052.052.104.105.13l.052.053c.026.026.052.078.078.104l.078.079c.026.026.052.026.052.052a.445.445 0 0 1 .13.105l.026.026a.564.564 0 0 1 .13.078c.027 0 .027.026.027.026.026.026.078.026.104.052.208.105.416.157.65.183h.418c.21-.026.444-.078.652-.183.026-.026.078-.026.104-.052l.026-.026c.052-.026.104-.052.13-.078.026 0 .026-.026.026-.026a.455.455 0 0 0 .13-.105c.027-.026.053-.026.053-.052l.078-.079a.359.359 0 0 0 .078-.104l.052-.052c.026-.053.078-.079.104-.131l.026-.026v-.026l5.054-7.734v12.463c0 1.15.911 2.116 2.057 2.116 1.12 0 2.058-.94 2.058-2.116V2.617c.104-.915-.495-1.751-1.354-2.013ZM54.304 23.518H38.962c-.808 0-1.693-.496-2.032-1.28-.338-.784-.39-1.855.313-2.717L49.772 4.916H39.405c-1.12 0-2.058-.993-2.058-2.195S38.259.76 39.405.76h13.961c.808 0 1.641.13 2.37.94.678.732.626 2.326-.104 3.267L43.52 19.129h10.784c1.146 0 1.953.993 1.953 2.195s-.807 2.194-1.953 2.194Zm-42.432.706c-3.412 0-6.485-1.359-8.7-3.815C1.246 18.267.126 15.42.126 12.597.125 3.792 7.418.5 12.029.5c4.532 0 7.84 2.22 7.996 2.325a2.267 2.267 0 0 1 .6 3.136 2.196 2.196 0 0 1-3.074.627c-.052-.026-2.423-1.568-5.522-1.568-2.892 0-6.877 1.907-6.877 7.577 0 3.214 2.397 7.028 6.772 7.028 2.475 0 4.194-.653 5.21-1.306v-3.344h-3.386c-1.224 0-2.214-1.02-2.214-2.247 0-1.254.99-2.247 2.214-2.247H19.4c1.224 0 2.214 1.019 2.214 2.247v6.714c0 .601-.234 1.202-.677 1.62-1.485 1.464-4.767 3.162-9.065 3.162Z" fill="#000" fill-opacity=".2"/></svg>