<svg width="16" height="16" fill="none" xmlns="http://www.w3.org/2000/svg"><path fill-rule="evenodd" clip-rule="evenodd" d="M8 13.333A5.333 5.333 0 1 0 8 2.667a5.333 5.333 0 0 0 0 10.666Zm0 1.334A6.667 6.667 0 1 0 8 1.333a6.667 6.667 0 0 0 0 13.334Z" fill="#777E91"/><path fill-rule="evenodd" clip-rule="evenodd" d="M9.164 12.118C9.657 11.133 10 9.678 10 8c0-1.679-.343-3.133-.836-4.118C8.632 2.818 8.144 2.667 8 2.667c-.143 0-.632.15-1.164 1.215C6.343 4.867 6 6.322 6 8c0 1.679.343 3.133.836 4.118.532 1.064 1.02 1.215 1.164 1.215.143 0 .632-.15 1.164-1.215ZM8 14.667c1.84 0 3.333-2.985 3.333-6.667S9.841 1.333 8 1.333C6.16 1.333 4.667 4.318 4.667 8S6.159 14.667 8 14.667Z" fill="#777E91"/><path fill-rule="evenodd" clip-rule="evenodd" d="M14.634 8.667a6.737 6.737 0 0 0 0-1.334H1.366a6.743 6.743 0 0 0 0 1.334h13.268Z" fill="#777E91"/></svg>