<svg width="785" height="654" fill="none" xmlns="http://www.w3.org/2000/svg"><path fill-rule="evenodd" clip-rule="evenodd" d="M0 459.191V.262l3.685.862 15.166 3.067 1.05.236 38.147 8.139 21.465 4.01 37.68 6.252 34.181 4.718 34.064 4.128 35.697 3.657 30.564 2.595 30.914 1.533 21.699.708 32.897.708h35.581l.35-9.319 1.75-.59 3.149.708 2.917 1.298 1.05 7.195 1.633 6.723 1.283 1.298h6.066l.35 1.77 7.583.353v2.36h3.5l.233-.945 1.75-1.769 3.5-.944 1.633 1.298h3.383l4.783 3.185 5.949 2.713 1.75.353.35-.825 3.5-1.18.7 4.129 1.75.943.35-.353 3.033.471v2.713l2.1.826h3.15l1.399-.708 3.85-3.892 4.316-.826 1.284 2.949.35.826 1.166-.944 11.433-.354 1.866 3.185.467-.708 7.349-.708-1.283 4.836-5.016 2.36-10.733 4.836-5.483 2.359-3.383 2.83-2.683 4.13-2.8 4.835-2.216.944-5.366 6.015-1.634.236-2.916 2.242.583.471 2.917.472 3.033-.59 8.399-3.656 3.383-2.241 3.15-1.18 3.733 2.949-2.1 2.123-2.1 3.42-.233.944 1.4-.825 1.75-.354 3.849 1.179.584 1.18.583-.944-.117-.118.234-.118.466-.825.234.354 1.05-.708 3.149-.944 3.5-2.24v-1.062l1.283-1.298 7.116-1.18 2.684-2.123 4.666-2.24.233-1.18 2.567-3.893 2.099-.943 1.4-1.888 2.917-2.948 5.483-3.067 6.299-.708 2.217 2.241-.7 2.477-4.433 1.18-1.75 3.656-2.567.826-.466 2.477-2.8 3.775-.117.943 5.017-4.128 1.866 1.887h2.333l4.083 1.297 2.1 1.534 1.75 3.774 2.683 2.713 3.733-.236 2.217-1.533 2.333 1.887 1.166.354 1.4-.825h1.283l1.517-.944 4.783-4.365 4.316-1.415 7.7-.354 5.016-2.123 3.266-1.651 3.15.471v7.078l2.8.825 8.749-2.359 1.517-1.533 3.266 1.061v8.611l3.267 3.185.233.118.7-2.831 2.683-.354 3.266-.354.35.472c.22.267.456.567.684.856.377.479.731.929.95 1.149.466.236.816.944.933 2.831v.59l-2.333 2.123-5.133-.354-.117-.236-1.633.354-1.167-.472-3.966-.589-2.45.707-2.566-.236-3.733 1.77h-2.45l-6.766-1.534-5.367.236-2.216 3.067-8.516.708-2.1.708-1.166 3.42-2.334 2.005-1.516-.589-1.283-1.416-4.667 2.595h-1.4l-.933-1.415-1.75 4.128-1.166 4.718-3.85 8.375-1.867 3.893-2.099 1.887-2.333 5.308-1.4 2.595.116.943h.117l1.05-1.769 1.633-.944.933-2.595 2.333-2.241 3.034-4.6 5.016-7.667 2.45-1.533.816 2.831-.233 3.066-3.5 8.139-3.15 6.606-.583 3.656-.583 2.713.933 1.416-.233 3.892-2.333 2.949-.467 1.651.7 4.011.817 4.364-1.867 3.303-.933 3.302-1.05 3.303 1.166 2.595.7 7.195 1.867 5.426-.233 4.247.466 6.605 1.517 2.713 1.983 2.241 1.633 4.6.933 3.067v.236l4.2 1.18 1.517.943.466-.118 2.333-2.123 3.267-2.359h.233l4.433-4.364.35-2.949 2.8-6.134 1.166-6.959.934-5.308-1.633-5.308-3.384-7.549-4.316-7.313.467-3.775.35-1.061.816-2.359-.466-1.062-.817-6.016 1.983-4.836 1.167-6.723-.933-2.713v-2.477l2.916-.59.467-1.769-.7-.944.35-2.005 2.45-2.713 2.799-1.18 1.167-4.954 3.5-1.533 1.516 1.533.35-2.241 2.217-2.713 3.383-.353-1.984-.59-.466-5.662 3.966-3.185 4.083-2.595 4.2 3.185.35.118.466-.472h3.967l6.533 4.128 4.899 1.652h3.617l1.75 3.538 3.383 2.831-.467 3.775-2.45-.472.467 1.298 1.4.825 2.216 3.185.35 12.857-2.916 2.005-.584 2.595-1.049 4.6-3.85 1.534a148.15 148.15 0 0 1-.467 4.954c.35.354 1.283 1.061 2.1 1.533l1.167.472.583-.354 2.916-4.01 2.333-6.252 4.9-2.241 2.45-1.651 3.85 2.713 3.033 4.128 2.683 10.852 3.733 9.79.467 11.678-3.267 1.769-1.983-.472-.233-.59-1.05 2.005-.234 4.837-1.75.471-1.283 1.298.234 6.016-2.567 2.241-2.216 4.01-.234 1.534v.353l.467-.118 2.916 1.77 2.683 1.533 6.183-.708 3.967 3.657 1.75-.118 6.416-3.067 3.499-.59 3.384-.825 4.433-4.365 4.083-4.482 4.666-2.831 7.583-4.6 5.599-3.539 1.4-.589 8.166-8.021v.236l1.4-1.062 1.283-1.179 1.167-2.006 2.216-1.415 1.867-1.769.583-1.77 2.683-3.42.817-.826-.117-.354-1.166-2.949-2.217-.236-2.683-8.846 4.316-2.713 5.25-1.769 4.783-1.534 3.85-.59 7.816-.236 2.333 1.534 1.166.118 2.217-1.416 3.266-1.415 5.833-.59 1.983-1.769 2.1-3.657 2.333-2.713h2.683l1.4-.825.117-1.652-1.633-2.359-.467-2.477 1.4-2.595v-.354h-1.167l-2.566-1.179-1.283-1.77-.35-4.01 7.116-6.841.583-.826 1.75-3.303 3.383-5.426 3.15-4.364 2.566-2.949 3.033-2.241 3.85-1.533 6.65-1.534 3.733.236 5.016-1.651 9.916-2.949v.118L785 89.836v122.249l-.642.177-.934-.354-2.333 2.123.7-.118 2.217-1.651.992 2.143v25.573l-2.509 5.311-3.033 4.6-.933 5.78-3.033 3.539h-2.45l-.467-4.719.933-1.179v-.354l-3.966-.59-5.249-2.595 1.983 3.893 1.983 5.308 3.383 2.241 1.75-.944 3.15 10.144.466-.118-.816 7.431-1.984 4.483-.35 4.718-3.383 4.482-.466 4.954.583 4.129-2.333 6.487-4.083 3.657-2.333-7.314.466-6.723 1.867-5.072.816-3.657-.116-1.415-.467.236-1.866-.708-2.8-3.774.583 2.005c.817 3.539.817 3.892.817 4.01 0 .236 0 .826-1.4 2.241l-1.05 1.062-2.216-3.774-.234-2.242-1.633-3.774-2.217-.236-2.333-3.067v1.298l1.983 2.713-1.866 3.892-1.283-.236 1.633 1.534 3.85.471 1.633 2.124-.467 5.308 1.75 1.415-.583 2.123 1.283.944-.467 3.42-2.916-.118 2.683 1.77.117 1.769 2.1 2.123.816 4.129-2.333 1.297.233.236 7-2.123 5.016 8.375h.117l.233.589.35.472h-.117l2.217 5.426 4.083 7.431 2.916 2.949.234.944 1.283-.354 3.442 6.961v11.205l-3.909 1.768-3.033 2.713-1.633 1.887-1.4-.236-3.5 6.724-3.966 6.251h-2.45l-1.166-.589-2.684.589-5.832 2.713-7.35 6.016-3.733 5.308-2.216 7.431-.7 3.539-6.183.707-5.716 1.652-6.417 6.605-2.916 6.841-.583 7.903-2.1 1.062-1.4 3.303-2.916.707-2.334 3.893-3.149 3.185-2.8 4.128-1.983 1.062-4.433 4.128-2.333.118.933 2.949-6.416 6.841-2.917 2.005h-.116l.699 2.006-3.849 7.431.583 2.949-1.866 5.189-2.567 11.56 1.05 8.493 2.566 8.374 4.317 11.324 6.183 10.97 4.199 7.313 5.483 6.369 4.783 4.483 2.333 4.246-1.75 2.005-.466 1.062 3.15 8.021 3.383 3.42 3.149 6.37 4.2 6.723 5.366 9.908 1.517 9.201.583 14.036.7 2.242-.467 4.836-2.683 1.415.234 1.651-.7 2.242.116.825.584-1.533 3.149-2.241-.35 6.723-1.283 2.123-2.916 7.903-4.55 4.836-6.299 4.954-3.967 3.067-3.266-3.067 4.083-2.595 3.85-2.241 4.899-4.718 2.45-4.128-3.266 1.651-4.317.236-1.633 1.769-3.5 1.416-2.1-.826-1.749-1.651-.35-3.775-.817-3.774-3.733-5.78-3.733-2.359-3.5-.236-1.516 2.477-4.783-6.841-.7-4.247-2.8-4.246-.933-.59-1.633 2.241-3.384-.59-2.683-6.369-3.383-4.6-3.383-6.252-2.916-3.538-4.9-5.072 3.033-3.539 3.5-6.016-.117-.707-1.292-.327-2.207 6.696-2.45 1.533-2.683-6.015-1.517-5.898-.35-3.539 1.75-5.661v-10.616l-3.383-4.129-1.4-3.302-5.483-1.416-2.683-.825-1.866-3.185-4.084-2.005-1.283-3.893-3.033-1.062-2.8-4.364-4.549-1.651-3.15-1.651h-2.683l-3.733.707-.117.944 1.05 1.415-1.167 2.713-3.849-.236-4.083 4.011-4.55 2.477h-4.666l-4.9 2.005-.466-4.364-1.4-1.77-3.85-1.179-1.866-1.769-9.217-4.483-8.515-2.005-4.9.708-6.883.59-6.999 2.477-5.25.943v-.354l-5.95 2.831-6.532-.707 5.133-3.657v-.472l-3.267-6.369-1.166-.354-1.4 4.246-1.983 4.129-1.517-.472h-3.266l-.584 2.241h-7.232l-1.867-.944-1.983-.236-8.05 2.241-1.516-.707-2.567 4.246-2.799 2.005-1.867 1.77-1.4 1.533.467.944 1.983.353.467-2.241 2.683-3.066 3.383-.472.467 4.128 1.749 2.595-2.799 4.836h-.817l-.817 2.595-2.799-.354-.584 1.534 2.8 2.005 6.766.944 3.85 3.184h2.333v3.303l-3.733 5.072-1.866-1.769h-3.5l-1.283-2.005-4.2-2.006-5.133-.707-2.916 1.887-2.8 4.128-5.016 1.888-2.567-2.595 3.383-1.18-.583-2.005-.467-.354-1.633 1.297-2.683.59-1.167 2.713-5.133 1.887-10.382-4.482-3.033-3.067 2.45-1.533.349-.826-1.166-1.179-5.716-.354-.467-3.421-1.4-2.123-2.8-.59-2.333 1.298 4.783 1.651-1.75 4.6-4.783-1.533-3.383-1.18-4.083 1.77-8.049-1.416-11.899-4.246-9.099.354-5.483 1.769-7.35 2.123-11.082 5.072-1.05 2.123-3.267 2.36-2.449 1.769-1.517.944-6.533 6.133-3.266 2.595-6.3 3.893-6.766 2.83-7.116 3.893-2.1 1.769-5.716 3.657-6.416 8.964-5.016 7.431-2.217 7.432-.35 5.897 1.05 6.96 3.033 8.492.583 6.252.35 2.713-2.216.707-1.633 2.478-4.433 2.83-7.116-4.954-5.833-1.179-1.517.59-4.316-.826-4.9-3.657-5.949-1.297-9.333-4.246-2.683-5.073-1.4-7.313-3.733-2.241-.933-3.892.816-.826.234-2.713-1.05-.472-1.167-1.887 1.517-5.19-1.4-2.005-3.733-1.534-4.2-5.543-4.083-7.55-5.249-3.302.233-2.713-6.066-14.391-.934-4.718-2.099-2.241-.234-1.769-6.766-6.016-3.383-4.01v-1.18L238.867 541l-7.583-1.298-8.866-.707-3.383-2.477-4.666 1.887-3.85 1.651-2.333 3.303-1.167 4.364-5.366 7.431-3.383 3.421-3.85-1.533-2.1-1.298-2.216-.708-5.25-3.066v-.944l-1.633-1.769-6.066-2.477-8.983-9.555-2.916-5.897v-9.555l-3.733-7.549-.467-2.831-1.75-1.061-1.283-2.359-5.716-2.477-1.75-2.123-8.399-9.437-1.4-3.538-5.483-2.713-1.867-5.426-2.683-2.949-1.4-.472-15.515-1.887-18.315-2.831-1.4 11.324-20.765-2.713v-.118l-29.631-3.185-14.7-2.831-19.714-11.913L0 459.191ZM695.465 654l3.499-1.769 4.783-1.77 5.25-1.769-1.05-3.067-2.683-.354-1.983-.825-3.383 2.359-1.634 2.477-1.05.118-4.549 1.179 2.8 3.421ZM449.667 542.062l2.1 1.769-3.033.472-1.867-1.062.234-.354 2.566-.825Zm-118.407 55.32.35-1.062-2.567-2.123.467-.825 4.199-.354-1.516 2.241-.933 2.123Zm-.234 40.222-.933-1.297-1.05-6.959-2.1-8.375-.816-2.595.583-3.657.583 7.549 3.15 8.493.583 6.841Zm416.235-365.539 1.749-.708-.35 4.482-1.749-1.533-2.217-5.898 1.517-6.134-.35-3.066-1.05-1.062c.7-.944 1.283-1.887 1.283-2.713 0-.236.117-1.061.35-1.769l.817-.59-1.284 3.775.7 2.359 1.983.353.467 4.719-2.45 1.179.584 6.606Zm12.832-26.186 1.983 1.887-1.283-.59-.7-1.297Zm-210.8-110.169 1.4-2.713.583-2.241.233 1.061.35 5.662-2.566 1.533v-3.302Zm-52.38 412.603.584 3.185-2.917-.472.35-.708-.116-1.061 1.749-.472.35-.472Zm274.846-186.839 2.333.472-3.85 1.297-1.633 1.652-.35-.944h-4.083l1.866-6.37-.7-1.061 2.45.354 5.017-2.241 1.749-3.893.584-2.005 3.149-1.652.35-5.425h.7l.117.471 1.633 2.595.7 6.842-.117 1.533-1.283.472-3.966 3.303-4.666 4.6ZM486.414 65.409l-4.083 2.36-2.916 1.297-3.733-2.242 3.266-3.774 2.683-.944 6.3-4.6 3.5-.944 1.866 1.888-6.883 6.96Z" fill="#D9D9D9" fill-opacity=".15"/></svg>