<svg width="238" height="35" fill="none" xmlns="http://www.w3.org/2000/svg"><path d="M89.475 13.62v14.856H84.05V13.62h-5.487V8.89h16.383v4.73h-5.471Zm18.15 8.948h-8.618c.17 1.628 1.116 2.342 2.495 2.342 1.287 0 2.356-.28 3.798-1.04l1.922 3.226c-1.814 1.07-3.689 1.675-5.983 1.675-4.418 0-6.851-3.132-6.851-7.645 0-5.071 2.852-7.661 6.711-7.661 4.03 0 6.541 2.652 6.541 8.11 0 .435 0 .745-.015.993Zm-6.665-5.366c-1.147 0-1.783.791-1.953 2.234h4.2c-.263-1.49-.759-2.234-2.247-2.234Zm16.026 11.585c-4.308 0-6.881-2.745-6.881-7.692 0-4.513 2.294-7.615 6.99-7.615 2.774 0 4.355 1.287 5.642 3.35l-3.472 2.636c-.698-1.287-1.178-1.907-2.263-1.907-1.287 0-1.938 1.287-1.938 3.613s.698 3.52 2.077 3.52c.946 0 1.628-.527 2.542-1.907l3.193 2.497c-1.705 2.512-3.286 3.505-5.89 3.505Zm17.158-.31v-8.344c0-1.907-.635-2.403-1.673-2.403-1.07 0-1.705.496-1.705 2.357v8.39h-5.038V10.084l5.038-2.016v6.7c.93-.698 1.952-1.288 3.688-1.288 3.224 0 4.759 2.156 4.759 6.017v8.98h-5.069Zm17.112.31c-5.812 0-8.928-4.311-8.928-10.096 0-6.296 3.689-10.096 8.944-10.096 4.804 0 6.711 2.078 8.059 5.77l-4.913 1.907c-.697-1.815-1.364-2.962-3.162-2.962-2.263 0-3.239 2.264-3.239 5.365 0 2.994.945 5.366 3.301 5.366 1.705 0 2.434-.93 3.488-2.776l4.587 2.435c-1.302 2.59-3.487 5.087-8.137 5.087Zm20.522-9.46c-.636-.698-1.364-1.225-2.341-1.225-1.224 0-1.984.59-1.984 2.372v8.003h-5.037V13.79h5.037v1.07c.868-.838 1.845-1.365 3.131-1.365 1.07 0 1.783.248 2.372.62l-1.178 5.21Zm11.965 9.15V27.5c-.899.698-1.953 1.287-3.658 1.287-3.224 0-4.758-2.156-4.758-6.017v-8.98h5.068v8.344c0 1.907.636 2.404 1.674 2.404 1.039 0 1.674-.497 1.674-2.358v-8.39h5.069v14.687h-5.069Zm17.112-.001v-8.343c0-1.907-.636-2.404-1.674-2.404-1.07 0-1.705.497-1.705 2.358v8.39h-5.037V13.79h5.037v.977c.93-.698 1.953-1.287 3.689-1.287 3.224 0 4.758 2.156 4.758 6.017v8.98h-5.068Zm14.88.311c-4.309 0-6.882-2.745-6.882-7.692 0-4.513 2.294-7.615 6.99-7.615 2.775 0 4.355 1.287 5.642 3.35l-3.472 2.636c-.697-1.287-1.178-1.907-2.263-1.907-1.286 0-1.937 1.287-1.937 3.613s.697 3.52 2.077 3.52c.945 0 1.627-.527 2.542-1.907l3.192 2.497c-1.704 2.512-3.285 3.505-5.889 3.505Zm17.158-.31v-8.344c0-1.907-.636-2.403-1.674-2.403-1.07 0-1.705.496-1.705 2.357v8.39h-5.038V10.084l5.038-2.016v6.7c.93-.698 1.953-1.288 3.689-1.288 3.224 0 4.758 2.156 4.758 6.017v8.98h-5.068ZM.042.5v11.197h11.19v22.378h11.176V11.697h11.19V.5H.042Zm44.732 22.378V11.697H33.598v22.378H67.14V22.878H44.774ZM67.14.5H44.774v11.197H67.14V.5Z" fill="#000" fill-opacity=".2"/></svg>