<svg width="274" height="40" fill="none" xmlns="http://www.w3.org/2000/svg"><path fill-rule="evenodd" clip-rule="evenodd" d="M5.154 14.644c.542-1.467 1.287-2.618 2.234-3.464a1.56 1.56 0 0 1 .395-.101c.135-.012.463-.023.993-.023.293 0 .541.023.767.057.226.045.451.124.688.236.237.124.52.282.835.497L7.038 15.05l.948.756v10.672a5.648 5.648 0 0 1-2.448-2.29c-.79-1.365-1.185-3.204-1.185-5.494-.01-1.241.26-2.595.801-4.05Zm-.372-4.096c.237 0 .542.046.914.124.372.08.71.158 1.027.237-2.212.982-3.926 2.595-5.134 4.863a13.781 13.781 0 0 0-1.58 6.487c0 2.9 1.005 5.381 3.024 7.446 2.02 2.064 4.48 3.102 7.367 3.102 2.787 0 5.156-1.072 7.074-3.204 1.918-2.132 2.888-4.648 2.888-7.547a6.457 6.457 0 0 1-.891 1.523 9.983 9.983 0 0 1-1.4 1.365c-.394.338-.755.598-1.07.767-.317.17-.723.361-1.23.575V12.05c.631-.26 1.139-.53 1.523-.812.383-.271.8-.677 1.252-1.208 1.162-1.286 1.805-2.73 1.94-4.31-.846.554-1.602.96-2.279 1.23a8.57 8.57 0 0 1-2.267.52c-.136 0-.316.01-.553.033-.925 0-2.302-.36-4.13-1.083-1.827-.722-3.27-1.083-4.331-1.083-2.088 0-3.757.982-5.02 2.922C.776 9.996.201 12.06.201 14.463c.158-.733.541-1.433 1.15-2.098.452-.497.97-.925 1.546-1.264a3.441 3.441 0 0 1 1.884-.553ZM24.03 32.604l3.44-3.836-1.737-1.816V16.674l.993-.665 2.764 2.098v13.56c0 .768-.045 1.422-.135 1.964a3.058 3.058 0 0 1-.61 1.399l-.97 1.207c-.44.541-.981.97-1.636 1.286 1.32-.136 2.403-.429 3.238-.891.846-.463 1.715-1.196 2.606-2.189.655-.745 1.151-1.478 1.478-2.211a8.32 8.32 0 0 0 .654-2.37V14.667l-1.184.08-3.712-2.494-2.685 2.211-.869-.474V6.476l-.79-1.704-3.52 3.441v19.484l-1.07 1.263 3.745 3.644Zm11.778-4.31 6.363 4.028 6.047-6.363-3.283 2.335-4.028-2.888v-2.685l7.198-5.381-4.58-6.171-7.311 5.1v11.146l-.406.88ZM56.96 8.416v7.39c-.53.056-.959.146-1.286.282-.327.135-.677.36-1.05.677-1.06.823-1.579 1.872-1.579 3.158-.011.407.045.801.158 1.185.372-.316.733-.53 1.083-.632a4.966 4.966 0 0 1 1.331-.158c.26 0 .474.034.632.08.158.056.395.157.71.315v7.266l5.461 5.494 5.02-5.1 6.048 5.1 8.81-8.54V10.312l-5.46-4.186-4.027 3.633-5.495-3.633-4.896 4.106V7.83c0-.79-.564-1.68-1.703-2.685a16.788 16.788 0 0 1-.97-.733c-.305-.248-.486-.61-.53-1.072a12.326 12.326 0 0 1-.08-1.128c0-.891.305-1.613.914-2.132a4.611 4.611 0 0 0-.677-.08c-1.184 0-2.234.496-3.136 1.478-.914.993-1.365 2.087-1.365 3.305 0 .18.022.44.079.756.225 1.286.891 2.245 2.008 2.877Zm26.4 20.081 4.895 3.441 3.554-3.361 4.23 2.967 3.633-3.915H98.41l-1.613-1.67V14.384l-.87.158-4.106-3.44-7.784 5.37v11.337l-.677.688Zm23.578-16.629a6.99 6.99 0 0 1-1.399-.89l-6.442 4.546v7.671l.598.474h3.836l-4.976 8.653c.768-.654 1.354-1.094 1.783-1.309a4.406 4.406 0 0 1 1.94-.44c.847 0 1.524.102 2.054.294.53.191 1.072.541 1.624 1.049l6.318-4.975v-7.785l-.474-.473h-4.23v-.395l3.756-6.6c-.394.237-.71.372-.947.417a7.855 7.855 0 0 1-1.151.057h-.835a3.36 3.36 0 0 1-1.455-.294Zm10.018 20.183 3.475-3.87-1.738-1.816V16.088l.948-.677 2.809 2.132v13.515c.011.655-.034 1.31-.135 1.964-.09.507-.305.981-.655 1.398-.214.26-.496.643-.868 1.151a5.648 5.648 0 0 1-1.704 1.343c1.207-.102 2.29-.395 3.227-.88.936-.485 1.816-1.207 2.628-2.155a8.867 8.867 0 0 0 1.422-2.234c.338-.778.564-1.58.677-2.392V14.068l-1.151.124-3.757-2.493-2.685 2.178-.868-.474v-7.48l-.756-1.737-3.554 3.44v19.529l-1.072 1.218 3.757 3.678Zm19.01-23.353-3.554-2.888-2.888 3.159 3.001 2.73 3.441-3Zm-5.574 8.924v10.751l-.755 1.151h1.342l3.08 2.606 3.238-2.967 4.152 3.362 3.632-4.027-1.15-1.456V16.968l.947-.474 2.099 2.29v9.872l3.677 3.204 3.554-4.028h-1.658l-.948-1.546V15.535l.474-.993-.948.203-3.632-2.888-3.554 3.678-4.152-3.283-3.441 3.836h1.343l1.15 1.342v9.872l-2.29.79-1.466-1.151V15.873l.473-.677-4.106-3.046-3.362 3.554 1.151.361 1.15 1.557Zm71.064 10.402-1.14-1.467V16.483l.948-.474 2.098 2.29v9.916l3.678 3.16 3.554-4.028h-1.658l-.948-1.546V15.05l.474-.948-.948.158-3.633-2.888-3.553 3.678-4.152-3.283-3.441 3.836h1.343l1.15 1.342v9.917l-1.421 1.895 4.388 2.888 3.261-3.621Zm-46.481.079c.531 0 1.004.067 1.444.203.44.135.858.36 1.286.688.418.327.734.643.926.948.191.304.361.722.496 1.24l-2.053 2.652-2.178 2.922c.553-.316 1.027-.508 1.422-.576.395-.067.97-.101 1.737-.101.891.079 1.659.293 2.29.632.632.338 1.208.857 1.738 1.545 1.263-.474 2.73-1.534 4.411-3.159 1.681-1.636 2.516-2.978 2.516-4.027 0-.18-.192-.756-.576-1.692a8.09 8.09 0 0 1-.575-3.013V14.068l-5.494-3.44-6.916 4.896v11.699l-.474.88Zm13.64-13.516h2.29v13.719l-.553 1.072h1.343l2.888 2.21 3.712-4.23h-1.625l-1.072-1.15v-11.35l2.336-2.888h-2.336V4.422l-4.704 4.389v3l-2.279 2.776Zm9.995 13.516 4.897 3.474 8.54-5.968V13.99l-.869.203-4.118-3.474-7.784 5.37v11.349l-.666.666Zm40.118-19.608v3.678c-.688 0-1.263.068-1.737.214-.474.147-.925.429-1.365.846-.44.418-.689.914-.767 1.467-.079.553-.125 1.275-.125 2.177 0 .373-.011.62-.045.756.576-.925 1.388-1.308 2.415-1.15.688.101 1.229.394 1.624.868v6.126a10.782 10.782 0 0 0-3.159 2.493c-1.004 1.185-1.681 2.403-2.019 3.678a9.58 9.58 0 0 1 1.421-.925c.395-.203.948-.395 1.659-.61.259-.078.564-.168.914-.258.338-.09.733-.136 1.184-.136v11.812l5.178-4.23 1.738 1.263V29.84l2.211.756 7.469-5.178V8.02l-4.784-3.836-4.896 4.107V6.126l-.948-.79v3.475l-.79.553V5.73l-4.027-3.091-4.784 4.704c.395-.237.801-.36 1.219-.36.338 0 .677.056.993.157.71.271 1.184.722 1.421 1.354ZM236 28.497l4.897 3.441 8.574-5.968V14.384l-.869.158-4.152-3.44-7.784 5.37v11.337l-.666.688ZM258.688 11.7a10.676 10.676 0 0 1-1.467-.869l-6.408 4.502v7.671l.553.474h3.836l-4.975 8.653a14.757 14.757 0 0 1 1.387-1.072c.688-.45 1.478-.676 2.369-.676.824 0 1.49.101 2.02.293.53.203 1.072.541 1.624 1.05l6.329-4.976v-7.784l-.473-.474h-4.231v-.395l3.757-6.6c-.395.237-.711.372-.948.418-.237.045-.62.056-1.151.056h-.823c-.542 0-1.004-.09-1.399-.27Zm5.37 3.08h2.29v13.718l-.553 1.072h1.343l2.843 2.212 3.757-4.231h-1.625l-1.072-1.15V15.06l2.291-2.888h-2.291V4.625l-4.682 4.39v3l-2.301 2.764Zm-175.329.361 3.08 2.29v9.206l-.993 1.072-2.098-1.816.011-10.752Zm76.524 16.2c.632.452.948 1.016.948 1.704 0 .316-.034.553-.079.71a3.435 3.435 0 0 1-.361.475c-.215.214-.486.35-.79.395-.339.056-.79-.113-1.343-.497-.552-.384-1.387-.575-2.493-.575a8.6 8.6 0 0 0-1.94.203 8.389 8.389 0 0 0-1.817.677l5.777-7.12v.915c0 .53.045.959.135 1.308.09.339.293.677.609.993.451.271.903.553 1.354.813Zm-5.099-16.674 3.001 2.211v8.936l-.869.947-2.132-2.132v-9.962ZM40.906 21.582v-5.776l2.888 3.632-2.888 2.144Zm67.713-6.521-2.685 4.784h-2.02v-5.179a4.75 4.75 0 0 0 2.573.756 6.818 6.818 0 0 0 2.132-.361Zm75.362-.316 3.079 2.336v9.205l-.981 1.072-2.098-1.861V14.745Zm-79.322 7.976h2.888v5.1a8.099 8.099 0 0 0-1.241-.339c-.282-.034-.846-.056-1.715-.056a6.11 6.11 0 0 0-1.5.158c-.418.101-.925.282-1.501.519l3.069-5.382ZM223.906 11.97l.79-.677v22.563l-.79-.474V11.97Zm1.738-1.264 2.414-1.545 1.737 1.263v14.858c-.823-.474-1.263-.722-1.342-.756l-.869-.282-1.94-.474V10.706ZM14.462 12.444c.26 0 .474-.023.632-.08V26.75a7.157 7.157 0 0 1-3.204.756 8.43 8.43 0 0 1-1.975-.237c-.654-.158-1.173-.373-1.545-.632l4.501-4.501v-9.883c.192.101.395.17.61.18.225.012.372.023.45.023l.53-.011Zm226.92 2.696 3.08 2.29v9.206l-.948 1.072-2.132-1.816V15.14ZM62.409 11.383l1.467-1.15 3.046 3.08v14.192l-1.23 1.263-3.283-3.159V11.383ZM259.32 15.14c.338-.056.677-.147.981-.282l-2.685 4.783h-2.019v-5.178a4.838 4.838 0 0 0 2.606.756c.406 0 .778-.034 1.117-.079Zm-2.967 7.39h2.888v5.099A8.11 8.11 0 0 0 258 27.29c-.282-.045-.846-.056-1.726-.056a6.058 6.058 0 0 0-1.501.158 9.83 9.83 0 0 0-1.466.519l3.046-5.382ZM72.799 11.382l1.433-1.15 3.08 3.08v14.192l-1.263 1.263-3.238-3.159-.012-14.226Z" fill="#000" fill-opacity=".2"/></svg>