<svg width="785" height="654" viewBox="0 0 785 654" fill="none" xmlns="http://www.w3.org/2000/svg">
<path fill-rule="evenodd" clip-rule="evenodd" d="M0 459.191V0.262451L3.68521 1.12413L18.8507 4.19093L19.9006 4.42684L58.0476 12.5657L79.5126 16.5761L117.193 22.8277L151.374 27.5458L185.438 31.6742L221.135 35.3308L251.699 37.9258L282.613 39.4592L304.312 40.1669L337.209 40.8747H372.79L373.14 31.5563L374.89 30.9665L378.039 31.6742L380.956 32.9717L382.006 40.1669L383.639 46.8903L384.922 48.1878H390.988L391.338 49.9571L398.921 50.311V52.6701H402.421L402.654 51.7264L404.404 49.9571L407.904 49.0135L409.537 50.311H412.92L417.703 53.4957L423.652 56.2087L425.402 56.5625L425.752 55.7369L429.252 54.5573L429.952 58.6857L431.702 59.6294L432.052 59.2755L435.085 59.7473V62.4603L437.185 63.2859H440.335L441.734 62.5782L445.584 58.6857L449.9 57.86L451.184 60.8089L451.534 61.6346L452.7 60.6909L464.133 60.3371L465.999 63.5218L466.466 62.8141L473.815 62.1064L472.532 66.9425L467.516 69.3016L456.783 74.1377L451.3 76.4968L447.917 79.3277L445.234 83.4561L442.434 88.2922L440.218 89.2358L434.852 95.2515L433.218 95.4874L430.302 97.7285L430.885 98.2003L433.802 98.6722L436.835 98.0824L445.234 94.4258L448.617 92.1847L451.767 91.0051L455.5 93.954L453.4 96.0772L451.3 99.4978L451.067 100.441L452.467 99.6158L454.217 99.2619L458.066 100.441L458.65 101.621L459.233 100.677L459.116 100.559L459.35 100.441L459.816 99.6158L460.05 99.9696L461.1 99.2619L464.249 98.3183L467.749 96.0772V95.0156L469.032 93.7181L476.148 92.5385L478.831 90.4154L483.498 88.1742L483.731 86.9947L486.298 83.1022L488.397 82.1586L489.797 80.2713L492.714 77.3225L498.197 74.2557L504.496 73.5479L506.713 75.7891L506.013 78.2661L501.58 79.4456L499.83 83.1022L497.263 83.9279L496.797 86.4049L493.997 90.1795L493.88 91.1231L498.897 86.9947L500.763 88.882H503.096L507.179 90.1795L509.279 91.7129L511.029 95.4874L513.712 98.2003L517.445 97.9644L519.662 96.431L521.995 98.3183L523.161 98.6722L524.561 97.8465H525.844L527.361 96.9028L532.144 92.5385L536.46 91.1231L544.16 90.7692L549.176 88.6461L552.442 86.9947L555.592 87.4665V94.5438L558.392 95.3694L567.141 93.0103L568.658 91.477L571.924 92.5385V101.149L575.191 104.334L575.424 104.452L576.124 101.621L578.807 101.267L582.073 100.913L582.423 101.385C582.643 101.652 582.879 101.952 583.107 102.241C583.484 102.72 583.838 103.17 584.057 103.39C584.523 103.626 584.873 104.334 584.99 106.221V106.811L582.657 108.934L577.524 108.58L577.407 108.344L575.774 108.698L574.607 108.226L570.641 107.637L568.191 108.344L565.625 108.108L561.892 109.878H559.442L552.676 108.344L547.309 108.58L545.093 111.647L536.577 112.355L534.477 113.063L533.311 116.483L530.977 118.488L529.461 117.899L528.178 116.483L523.511 119.078H522.111L521.178 117.663L519.428 121.791L518.262 126.509L514.412 134.884L512.545 138.777L510.446 140.664L508.113 145.972L506.713 148.567L506.829 149.51H506.946L507.996 147.741L509.629 146.797L510.562 144.202L512.895 141.961L515.929 137.361L520.945 129.694L523.395 128.161L524.211 130.992L523.978 134.058L520.478 142.197L517.328 148.803L516.745 152.459L516.162 155.172L517.095 156.588L516.862 160.48L514.529 163.429L514.062 165.08L514.762 169.091L515.579 173.455L513.712 176.758L512.779 180.06L511.729 183.363L512.895 185.958L513.595 193.153L515.462 198.579L515.229 202.826L515.695 209.431L517.212 212.144L519.195 214.385L520.828 218.985L521.761 222.052V222.288L525.961 223.468L527.478 224.411L527.944 224.293L530.277 222.17L533.544 219.811H533.777L538.21 215.447L538.56 212.498L541.36 206.364L542.526 199.405L543.46 194.097L541.827 188.789L538.443 181.24L534.127 173.927L534.594 170.152L534.944 169.091L535.76 166.732L535.294 165.67L534.477 159.654L536.46 154.818L537.627 148.095L536.694 145.382V142.905L539.61 142.315L540.077 140.546L539.377 139.602L539.727 137.597L542.177 134.884L544.976 133.705L546.143 128.75L549.643 127.217L551.159 128.75L551.509 126.509L553.726 123.796L557.109 123.443L555.125 122.853L554.659 117.191L558.625 114.006L562.708 111.411L566.908 114.596L567.258 114.714L567.724 114.242H571.691L578.224 118.37L583.123 120.022H586.74L588.49 123.56L591.873 126.391L591.406 130.166L588.956 129.694L589.423 130.992L590.823 131.817L593.039 135.002L593.389 147.859L590.473 149.864L589.889 152.459L588.84 157.059L584.99 158.593C584.873 160.244 584.64 162.485 584.523 163.547C584.873 163.901 585.806 164.608 586.623 165.08L587.79 165.552L588.373 165.198L591.289 161.188L593.622 154.936L598.522 152.695L600.972 151.044L604.822 153.757L607.855 157.885L610.538 168.737L614.271 178.527L614.738 190.205L611.471 191.974L609.488 191.502L609.255 190.912L608.205 192.917L607.971 197.754L606.221 198.225L604.938 199.523L605.172 205.539L602.605 207.78L600.389 211.79L600.155 213.324V213.677L600.622 213.559L603.538 215.329L606.221 216.862L612.404 216.154L616.371 219.811L618.121 219.693L624.537 216.626L628.036 216.036L631.42 215.211L635.853 210.846L639.936 206.364L644.602 203.533L652.185 198.933L657.784 195.394L659.184 194.805L667.35 186.784V187.02L668.75 185.958L670.033 184.779L671.2 182.773L673.416 181.358L675.283 179.589L675.866 177.819L678.549 174.399L679.366 173.573L679.249 173.219L678.083 170.27L675.866 170.034L673.183 161.188L677.499 158.475L682.749 156.706L687.532 155.172L691.382 154.582L699.198 154.346L701.531 155.88L702.697 155.998L704.914 154.582L708.18 153.167L714.013 152.577L715.996 150.808L718.096 147.151L720.429 144.438H723.112L724.512 143.613L724.629 141.961L722.996 139.602L722.529 137.125L723.929 134.53V134.176H722.762L720.196 132.997L718.913 131.227L718.563 127.217L725.679 120.376L726.262 119.55L728.012 116.247L731.395 110.821L734.545 106.457L737.111 103.508L740.144 101.267L743.994 99.7337L750.644 98.2003L754.377 98.4362L759.393 96.7849L769.309 93.836V93.954L785 89.8362V212.085L784.358 212.262L783.424 211.908L781.091 214.031L781.791 213.913L784.008 212.262L785 214.405V239.978L782.491 245.289L779.458 249.889L778.525 255.669L775.492 259.208H773.042L772.575 254.49L773.508 253.31V252.956L769.542 252.366L764.293 249.771L766.276 253.664L768.259 258.972L771.642 261.213L773.392 260.269L776.542 270.413L777.008 270.295L776.192 277.726L774.208 282.209L773.858 286.927L770.475 291.409L770.009 296.363L770.592 300.492L768.259 306.979L764.176 310.636L761.843 303.322L762.309 296.599L764.176 291.527L764.992 287.87L764.876 286.455L764.409 286.691L762.543 285.983L759.743 282.209L760.326 284.214C761.143 287.753 761.143 288.106 761.143 288.224C761.143 288.46 761.143 289.05 759.743 290.465L758.693 291.527L756.477 287.753L756.243 285.511L754.61 281.737L752.393 281.501L750.06 278.434V279.732L752.043 282.445L750.177 286.337L748.894 286.101L750.527 287.635L754.377 288.106L756.01 290.23L755.543 295.538L757.293 296.953L756.71 299.076L757.993 300.02L757.526 303.44L754.61 303.322L757.293 305.092L757.41 306.861L759.51 308.984L760.326 313.113L757.993 314.41L758.226 314.646L765.226 312.523L770.242 320.898H770.359L770.592 321.487L770.942 321.959H770.825L773.042 327.385L777.125 334.816L780.041 337.765L780.275 338.709L781.558 338.355L785 345.316V356.521L781.091 358.289L778.058 361.002L776.425 362.889L775.025 362.653L771.525 369.377L767.559 375.628H765.109L763.943 375.039L761.259 375.628L755.427 378.341L748.077 384.357L744.344 389.665L742.128 397.096L741.428 400.635L735.245 401.342L729.529 402.994L723.112 409.599L720.196 416.44L719.613 424.343L717.513 425.405L716.113 428.708L713.197 429.415L710.863 433.308L707.714 436.493L704.914 440.621L702.931 441.683L698.498 445.811L696.165 445.929L697.098 448.878L690.682 455.719L687.765 457.724H687.649L688.348 459.73L684.499 467.161L685.082 470.11L683.216 475.3L680.649 486.859L681.699 495.352L684.265 503.726L688.582 515.05L694.765 526.02L698.964 533.333L704.447 539.702L709.23 544.185L711.563 548.431L709.813 550.436L709.347 551.498L712.497 559.519L715.88 562.939L719.029 569.309L723.229 576.032L728.595 585.94L730.112 595.141L730.695 609.177L731.395 611.419L730.928 616.255L728.245 617.67L728.479 619.321L727.779 621.563L727.895 622.388L728.479 620.855L731.628 618.614L731.278 625.337L729.995 627.46L727.079 635.363L722.529 640.199L716.23 645.153L712.263 648.22L708.997 645.153L713.08 642.558L716.93 640.317L721.829 635.599L724.279 631.471L721.013 633.122L716.696 633.358L715.063 635.127L711.563 636.543L709.463 635.717L707.714 634.066L707.364 630.291L706.547 626.517L702.814 620.737L699.081 618.378L695.581 618.142L694.065 620.619L689.282 613.778L688.582 609.531L685.782 605.285L684.849 604.695L683.216 606.936L679.832 606.347L677.149 599.977L673.766 595.377L670.383 589.125L667.467 585.587L662.567 580.515L665.6 576.976L669.1 570.96L668.983 570.253L667.691 569.926L665.484 576.622L663.034 578.155L660.351 572.14L658.834 566.242L658.484 562.703L660.234 557.042V546.426L656.851 542.297L655.451 538.995L649.968 537.579L647.285 536.754L645.419 533.569L641.335 531.564L640.052 527.671L637.019 526.61L634.219 522.245L629.67 520.594L626.52 518.942H623.837L620.104 519.65L619.987 520.594L621.037 522.009L619.87 524.722L616.021 524.486L611.938 528.497L607.388 530.974H602.722L597.822 532.979L597.356 528.615L595.956 526.845L592.106 525.666L590.24 523.897L581.023 519.414L572.508 517.409L567.608 518.117L560.725 518.707L553.726 521.184L548.476 522.127V521.773L542.526 524.604L535.994 523.897L541.127 520.24V519.768L537.86 513.399L536.694 513.045L535.294 517.291L533.311 521.42L531.794 520.948H528.528L527.944 523.189H520.712L518.845 522.245L516.862 522.009L508.812 524.25L507.296 523.543L504.729 527.789L501.93 529.794L500.063 531.564L498.663 533.097L499.13 534.041L501.113 534.395L501.58 532.153L504.263 529.087L507.646 528.615L508.113 532.743L509.862 535.338L507.063 540.174H506.246L505.429 542.769L502.63 542.415L502.046 543.949L504.846 545.954L511.612 546.898L515.462 550.082H517.795V553.385L514.062 558.457L512.196 556.688H508.696L507.413 554.683L503.213 552.677L498.08 551.97L495.164 553.857L492.364 557.985L487.347 559.873L484.781 557.278L488.164 556.098L487.581 554.093L487.114 553.739L485.481 555.036L482.798 555.626L481.631 558.339L476.498 560.226L466.116 555.744L463.083 552.677L465.533 551.144L465.882 550.318L464.716 549.139L459 548.785L458.533 545.364L457.133 543.241L454.333 542.651L452 543.949L456.783 545.6L455.033 550.2L450.25 548.667L446.867 547.487L442.784 549.257L434.735 547.841L422.836 543.595L413.737 543.949L408.254 545.718L400.904 547.841L389.822 552.913L388.772 555.036L385.505 557.396L383.056 559.165L381.539 560.108L375.006 566.242L371.74 568.837L365.44 572.73L358.674 575.56L351.558 579.453L349.458 581.222L343.742 584.879L337.326 593.843L332.31 601.274L330.093 608.706L329.743 614.603L330.793 621.563L333.826 630.055L334.409 636.307L334.759 639.02L332.543 639.728L330.91 642.205L326.477 645.035L319.361 640.081L313.528 638.902L312.011 639.492L307.695 638.666L302.795 635.009L296.846 633.712L287.513 629.465L284.83 624.393L283.43 617.08L279.697 614.839L278.764 610.947L279.58 610.121L279.814 607.408L278.764 606.936L277.597 605.049L279.114 599.859L277.714 597.854L273.981 596.32L269.781 590.777L265.698 583.227L260.449 579.925L260.682 577.212L254.616 562.821L253.682 558.103L251.583 555.862L251.349 554.093L244.583 548.077L241.2 544.067V542.887L238.867 541L231.284 539.702L222.418 538.995L219.035 536.518L214.369 538.405L210.519 540.056L208.186 543.359L207.019 547.723L201.653 555.154L198.27 558.575L194.42 557.042L192.32 555.744L190.104 555.036L184.854 551.97V551.026L183.221 549.257L177.155 546.78L168.172 537.225L165.256 531.328V521.773L161.523 514.224L161.056 511.393L159.306 510.332L158.023 507.973L152.307 505.496L150.557 503.373L142.158 493.936L140.758 490.398L135.275 487.685L133.408 482.259L130.725 479.31L129.325 478.838L113.81 476.951L95.4947 474.12L94.0948 485.444L73.3298 482.731V482.613L43.6987 479.428L28.9999 476.597L9.28476 464.684L0 459.191ZM695.465 654L698.964 652.231L703.747 650.461L708.997 648.692L707.947 645.625L705.264 645.271L703.281 644.446L699.898 646.805L698.264 649.282L697.214 649.4L692.665 650.579L695.465 654ZM449.667 542.061L451.767 543.831L448.734 544.303L446.867 543.241L447.101 542.887L449.667 542.061ZM331.26 597.382L331.61 596.32L329.043 594.197L329.51 593.372L333.709 593.018L332.193 595.259L331.26 597.382ZM331.026 637.604L330.093 636.307L329.043 629.348L326.943 620.973L326.127 618.378L326.71 614.721L327.293 622.27L330.443 630.763L331.026 637.604ZM747.261 272.065L749.01 271.357L748.66 275.839L746.911 274.306L744.694 268.408L746.211 262.274L745.861 259.208L744.811 258.146C745.511 257.202 746.094 256.259 746.094 255.433C746.094 255.197 746.211 254.372 746.444 253.664L747.261 253.074L745.977 256.849L746.677 259.208L748.66 259.561L749.127 264.28L746.677 265.459L747.261 272.065ZM760.093 245.879L762.076 247.766L760.793 247.176L760.093 245.879ZM549.293 135.71L550.693 132.997L551.276 130.756L551.509 131.817L551.859 137.479L549.293 139.012V135.71ZM496.913 548.313L497.497 551.498L494.58 551.026L494.93 550.318L494.814 549.257L496.563 548.785L496.913 548.313ZM771.759 361.474L774.092 361.946L770.242 363.243L768.609 364.895L768.259 363.951H764.176L766.042 357.581L765.342 356.52L767.792 356.874L772.809 354.632L774.558 350.74L775.142 348.735L778.291 347.083L778.641 341.658H779.341L779.458 342.129L781.091 344.724L781.791 351.566L781.674 353.099L780.391 353.571L776.425 356.874L771.759 361.474ZM486.414 65.4091L482.331 67.7682L479.415 69.0657L475.682 66.8245L478.948 63.05L481.631 62.1064L487.931 57.5062L491.43 56.5625L493.297 58.4498L486.414 65.4091Z" fill="#D9D9D9" fill-opacity="0.1"/>
</svg>
