<svg width="21" height="12" viewBox="0 0 21 12" fill="none" xmlns="http://www.w3.org/2000/svg">
<path d="M20.5975 2.37182C20.858 2.1135 21 1.78474 21 1.39726C21 0.62231 20.3844 0 19.6032 0C19.2125 0 18.8574 0.164384 18.5851 0.434443L10.4882 8.65362L2.41488 0.434443C2.14262 0.164384 1.77565 0 1.39684 0C0.615558 0 0 0.62231 0 1.39726C0 1.78474 0.142052 2.1135 0.40248 2.37182L9.3991 11.5068C9.70688 11.8356 10.0857 11.9883 10.5 12C10.9143 12 11.2694 11.8356 11.5891 11.5068L20.5975 2.37182Z" fill="#414757" fill-opacity="0.5"/>
</svg>
